 <svg
                xmlns="http://www.w3.org/2000/svg"
                viewBox="0 0 36 36"
              ><path
                d="M36 18.5c0-1.639-.97-3.004-2.273-3.385C32.367 7.658 25.85 2 18 2 10.15 2 3.633 7.658 2.273 15.115.97 15.496 0 16.861 0 18.5c0 1.736 1.087 3.168 2.51 3.442C4.269 28.868 10.527 34 18 34c7.473 0 13.731-5.132 15.49-12.058C34.912 21.668 36 20.236 36 18.5z"
                fill="#FFDC5D"
              /><path
                d="M17.982 11h-.031a4.362 4.362 0 01-3.135-1.304 3.739 3.739 0 01-1.076-2.847.992.992 0 011.057-.935c.551.033.972.508.939 1.06-.029.495.155.983.503 1.336a2.425 2.425 0 001.725.729c.653-.036 1.27-.247 1.735-.705a3.312 3.312 0 00.032-4.677 4.391 4.391 0 00-6.202-.042.999.999 0 11-1.404-1.424 6.394 6.394 0 019.03.062 5.29 5.29 0 01-.052 7.486c-.836.826-1.945 1.261-3.121 1.261z"
                fill="#EF9645"
              /><path
                d="M18 31.5c2.715 0 5.027-1.38 5.895-3.309.359-.798-.25-1.691-1.157-1.691h-9.476c-.907 0-1.516.893-1.157 1.691.868 1.929 3.18 3.309 5.895 3.309z"
                fill="#642116"
              /><path
                d="M16 19c-.419 0-.809-.265-.949-.684C14.848 17.717 14.034 16 13 16c-1.062 0-1.888 1.827-2.051 2.316a.999.999 0 11-1.897-.633C9.177 17.307 10.356 14 13 14s3.823 3.307 3.949 3.684A1 1 0 0116 19zm10 0a.999.999 0 01-.948-.684C24.849 17.717 24.033 16 23 16c-1.062 0-1.889 1.827-2.052 2.316a1 1 0 11-1.897-.633C19.177 17.307 20.355 14 23 14c2.645 0 3.823 3.307 3.948 3.684A1 1 0 0126 19z"
                fill="#664500"
              /></svg>