<svg
                xmlns="http://www.w3.org/2000/svg"
                viewBox="0 0 36 36"
              ><path
                d="M33.5 18c1.38 0 2.5-1.567 2.5-3.5S34.88 11 33.5 11 31 12.567 31 14.5s1.12 3.5 2.5 3.5zM2.5 18C3.88 18 5 16.433 5 14.5S3.88 11 2.5 11 0 12.567 0 14.5 1.12 18 2.5 18z"
                fill="#F4900C"
              /><path
                d="M34 19a1 1 0 01-1 1h-3a1 1 0 01-1-1v-9a1 1 0 011-1h3a1 1 0 011 1v9zM7 19a1 1 0 01-1 1H3a1 1 0 01-1-1v-9a1 1 0 011-1h3a1 1 0 011 1v9z"
                fill="#FFAC33"
              /><path
                d="M28 5c0 2.761-4.478 4-10 4C12.477 9 8 7.761 8 5s4.477-5 10-5c5.522 0 10 2.239 10 5z"
                fill="#FFCC4D"
              /><path
                d="M25 4.083C25 5.694 21.865 7 18 7c-3.866 0-7-1.306-7-2.917 0-1.611 3.134-2.917 7-2.917 3.865 0 7 1.306 7 2.917z"
                fill="#F4900C"
              /><path
                d="M30 5.5C30 6.881 28.881 7 27.5 7h-19C7.119 7 6 6.881 6 5.5A2.5 2.5 0 018.5 3h19A2.5 2.5 0 0130 5.5z"
                fill="#269"
              /><path
                d="M30 6H6a2 2 0 00-2 2v26h28V8a2 2 0 00-2-2z"
                fill="#55ACEE"
              /><path
                d="M35 33v-1a2 2 0 00-2-2H22.071l-3.364 3.364a.999.999 0 01-1.414 0L13.929 30H3a2 2 0 00-2 2v1c0 1.104-.104 2 1 2h32c1.104 0 1-.896 1-2z"
                fill="#3B88C3"
              /><path
                d="M29 25.5a2.5 2.5 0 01-2.5 2.5h-17a2.5 2.5 0 110-5h17a2.5 2.5 0 012.5 2.5z"
                fill="#F5F8FA"
              /><path
                d="M17 23h2v5h-2v-5zm-5 0h2v5h-2v-5zm10 0h2v5h-2v-5zM7 25.5a2.5 2.5 0 002 2.45v-4.9a2.5 2.5 0 00-2 2.45zm20-2.45v4.899a2.5 2.5 0 000-4.899z"
                fill="#CCD6DD"
              /><path
                fill-rule="evenodd"
                clip-rule="evenodd"
                d="M1.24 11.018c.24.239 1.438.957 1.677 1.675.24.717.72 4.784 2.158 5.981 1.483 1.232 7.077.774 8.148.24 2.397-1.195 2.691-4.531 3.115-6.221.239-.957 1.677-.957 1.677-.957s1.438 0 1.678.956c.424 1.691.72 5.027 3.115 6.221 1.072.535 6.666.994 8.151-.238 1.436-1.197 1.915-5.264 2.155-5.982.238-.717 1.438-1.435 1.677-1.674.241-.239.241-1.196 0-1.436-.479-.478-6.134-.904-12.223-.239-1.215.133-1.677.478-4.554.478-2.875 0-3.339-.346-4.553-.478-6.085-.666-11.741-.24-12.221.238-.239.239-.239 1.197 0 1.436z"
                fill="#292F33"
              /></svg>