<svg width="49.99999999999999" height="49.99999999999999" xmlns="http://www.w3.org/2000/svg">

 <g>
  <title>background</title>
  <rect fill="none" id="canvas_background" height="402" width="582" y="-1" x="-1"/>
 </g>
 <g>
  <title>Layer 1</title>
  <rect fill="#f74b50" id="svg_4" y="2.62" x="2" width="46" height="6" class="st3"/>
  <rect fill="#8bd94f" id="svg_5" y="8.62" x="5.06" width="39.88" height="29.95" class="st6"/>
  <path fill="#f74b50" id="svg_6" d="m17.629999,12.43l0,7l7,0c0,-3.87 -3.139999,-7 -7,-7z" class="st1"/>
  <path fill="#ffe94f" id="svg_7" d="m15.25,14.8c-3.87,0 -7,3.13 -7,6.999999c0,1.93 0.78,3.68 2.05,4.950001l4.95,-4.950001l0,-6.999999z" class="st7"/>
  <path fill="#45d4d9" id="svg_8" d="m15.25,21.799999l-4.95,4.950001c1.27,1.27 3.02,2.049999 4.95,2.049999c3.870001,0 7,-3.129999 7,-7l-7,0z" class="st1"/>
  <rect fill="#45d4d9" id="svg_9" y="16.37" x="38.76" width="3.19" height="19.2" class="st2"/>
  <rect fill="#45d4d9" id="svg_10" y="23.37" x="32.36" width="3.19" height="12.2" class="st2"/>
  <rect fill="#45d4d9" id="svg_11" y="30.37" x="25.97" width="3.19" height="5.2" class="st2"/>
  <path fill="#2c2a3d" id="svg_13" d="m9,9.36c0.42,0 0.75,-0.33 0.75,-0.74c0,-0.42 -0.33,-0.75 -0.75,-0.75c-0.41,0 -0.75,0.33 -0.75,0.75c0,0.42 0.34,0.74 0.75,0.74z" class="st4"/>
  <path fill="#2c2a3d" id="svg_14" d="m48.529999,2.09c-0.139999,-0.14 -0.329998,-0.21 -0.529999,-0.21l-46,0c-0.2,0 -0.39,0.08 -0.53,0.22c-0.14,0.13 -0.22,0.33 -0.22,0.51l0,6.01c0,0.190001 0.08,0.39 0.22,0.53c0.14,0.14 0.33,0.21 0.53,0.21l2.31,0l0,29.200002c0,0.41 0.34,0.75 0.75,0.75l19.19,0l0,2.169998c-1.15,0.330002 -2,1.380001 -2,2.630001c0,1.52 1.23,2.75 2.75,2.75s2.75,-1.23 2.75,-2.75c0,-1.25 -0.85,-2.299999 -2,-2.630001l0,-2.169998l19.189999,0c0.41,0 0.75,-0.34 0.75,-0.75l0,-29.200002l2.310001,0c0.200001,0 0.389999,-0.07 0.529999,-0.219999c0.139999,-0.13 0.220001,-0.320001 0.220001,-0.52l0,-6.01c0,-0.19 -0.080002,-0.38 -0.220001,-0.52zm-22.279999,42.029999c0,0.690002 -0.559999,1.25 -1.25,1.25s-1.25,-0.559998 -1.25,-1.25s0.559999,-1.25 1.25,-1.25s1.25,0.560001 1.25,1.25zm21,-36.239999l-36.25,0c-0.41,0 -0.75,0.33 -0.75,0.75c0,0.41 0.34,0.74 0.75,0.74l33.200001,0l0,28.45l-19.190001,0c0,0 0,0 0,0s0,0 0,0l-19.2,0l0,-28.46l1.19,0c0.42,0 0.75,-0.33 0.75,-0.74c0,-0.42 -0.33,-0.75 -0.75,-0.75l-4.25,0l0,-4.51l44.5,0l0,4.52z" class="st4"/>
  <path fill="#2c2a3d" id="svg_15" d="m15.25,29.549999c4.27,0 7.75,-3.48 7.75,-7.75c0,-0.41 -0.34,-0.75 -0.75,-0.75l-6.25,0l0,-6.249999c0,-0.41 -0.34,-0.75 -0.75,-0.75c-4.27,0 -7.75,3.48 -7.75,7.749999s3.47,7.75 7.75,7.75zm6.200001,-7c-0.370001,3.09 -3.01,5.5 -6.210001,5.5c-1.45,0 -2.79,-0.5 -3.849999,-1.34l4.16,-4.16l5.900001,0zm-6.950001,-6.949999l0,5.889999l-4.16,4.16c-0.84,-1.059999 -1.34,-2.389999 -1.34,-3.85c0,-3.189999 2.4,-5.829999 5.5,-6.199999z" class="st4"/>
  <path fill="#2c2a3d" id="svg_16" d="m17.629999,20.18l7,0c0.410002,0 0.75,-0.34 0.75,-0.75c0,-4.27 -3.48,-7.75 -7.75,-7.75c-0.41,0 -0.75,0.34 -0.75,0.75l0,7c0,0.41 0.33,0.75 0.75,0.75zm0.75,-6.96c2.85,0.34 5.110001,2.61 5.460001,5.46l-5.460001,0l0,-5.46z" class="st4"/>
  <path fill="#2c2a3d" id="svg_17" d="m38.759998,36.32l3.190002,0c0.41,0 0.75,-0.34 0.75,-0.75l0,-19.199999c0,-0.410001 -0.34,-0.750001 -0.75,-0.750001l-3.190002,0c-0.41,0 -0.75,0.34 -0.75,0.750001l0,19.199999c0,0.41 0.330002,0.75 0.75,0.75zm0.75,-19.199999l1.690002,0l0,17.699999l-1.690002,0l0,-17.699999z" class="st4"/>
  <path fill="#2c2a3d" id="svg_18" d="m32.360001,36.32l3.189999,0c0.41,0 0.75,-0.34 0.75,-0.75l0,-12.199999c0,-0.410002 -0.34,-0.75 -0.75,-0.75l-3.189999,0c-0.41,0 -0.75,0.339998 -0.75,0.75l0,12.199999c0,0.41 0.34,0.75 0.75,0.75zm0.75,-12.199999l1.689999,0l0,10.699999l-1.689999,0l0,-10.699999z" class="st4"/>
  <path fill="#2c2a3d" id="svg_19" d="m25.219999,35.57c0,0.41 0.34,0.75 0.75,0.75l3.190001,0c0.41,0 0.75,-0.34 0.75,-0.75l0,-5.199999c0,-0.410002 -0.34,-0.75 -0.75,-0.75l-3.190001,0c-0.41,0 -0.75,0.339998 -0.75,0.75l0,5.199999zm1.5,-4.449999l1.690001,0l0,3.699999l-1.690001,0l0,-3.699999z" class="st4"/>
 </g>
</svg>