<svg width="50" height="50" xmlns="http://www.w3.org/2000/svg">

 <g>
  <title>background</title>
  <rect fill="none" id="canvas_background" height="402" width="582" y="-1" x="-1"/>
 </g>
 <g>
  <title>Layer 1</title>
  <path fill="#8bd94f" id="svg_5" d="m2.12,15.88l0,28.55c0,1.23 0.99,2.23 2.23,2.23l41.550002,0c1.219997,0 2.23,-0.990002 2.23,-2.23l0,-28.55l-46.010001,0z" class="st1"/>
  <polygon fill="#ffffff" id="svg_6" points="6.57,15.89 6.57,42.21 37.25,42.21 43.67,35.8 43.67,15.89    " class="st6"/>
  <rect fill="#45d4d9" id="svg_7" y="19.12" x="18.73" width="4.43" height="4.43" class="st2"/>
  <rect fill="#45d4d9" id="svg_8" y="19.12" x="26.83" width="4.43" height="4.43" class="st2"/>
  <rect fill="#ffe94f" id="svg_9" y="19.12" x="35.42" width="4.43" height="4.43" class="st2"/>
  <rect fill="#45d4d9" id="svg_10" y="26.83" x="10.38" width="4.43" height="4.43" class="st2"/>
  <rect fill="#ffe94f" id="svg_11" y="26.83" x="18.73" width="4.43" height="4.43" class="st2"/>
  <rect fill="#45d4d9" id="svg_12" y="26.83" x="26.83" width="4.43" height="4.43" class="st2"/>
  <rect fill="#45d4d9" id="svg_13" y="26.83" x="35.42" width="4.43" height="4.43" class="st2"/>
  <rect fill="#45d4d9" id="svg_14" y="34.54" x="10.38" width="4.43" height="4.43" class="st2"/>
  <rect fill="#45d4d9" id="svg_15" y="34.54" x="18.73" width="4.43" height="4.43" class="st2"/>
  <rect fill="#ffe94f" id="svg_16" y="34.54" x="26.904052" width="4.43" height="4.43" class="st2"/>
  <polygon fill="#f74b50" id="svg_17" points="37.26,35.8 43.67,35.8 37.26,42.21    " class="st5"/>
  <path fill="#f74b50" id="svg_18" d="m48.119999,10.53c0,-1.23 -1,-2.23 -2.23,-2.23l-41.539999,0c-1.23,0 -2.23,0.99 -2.23,2.23l0,5.360001l45.999999,0l0,-5.360001z" class="st3"/>
  <path fill="#8bd94f" id="svg_20" d="m13.01,4.38l0,3.92l-4.2,0l0,-3.92c0,-1.16 0.94,-2.1 2.099999,-2.1c0.59,0 1.110001,0.24 1.49,0.62c0.38,0.37 0.610001,0.9 0.610001,1.48z" class="st5"/>
  <path fill="#8bd94f" id="svg_21" d="m41.439999,4.38l0,3.92l-4.209999,0l0,-3.92c0,-1.16 0.939999,-2.1 2.100002,-2.1c0.589996,0 1.109997,0.24 1.489998,0.62c0.380001,0.37 0.619999,0.9 0.619999,1.48z" class="st5"/>
  <path fill="#2c2a3d" id="svg_23" d="m45.900002,7.56l-3.710003,0l0,-3.18c0,-0.76 -0.299999,-1.48 -0.84,-2.02c-0.549999,-0.54 -1.259998,-0.83 -2.019997,-0.83c-1.570004,0 -2.850002,1.28 -2.850002,2.85l0,3.18l-22.709999,0l0,-3.18c0,-0.76 -0.3,-1.48 -0.84,-2.02c-0.55,-0.54 -1.26,-0.83 -2.02,-0.83c-1.57,0 -2.849999,1.28 -2.849999,2.85l0,3.18l-3.710001,0c-0.84,0 -1.64,0.35 -2.21,0.97c-0.49,0.55 -0.76,1.26 -0.76,2l0,5.34c0,0.01 0,0.01 0,0.02s0,0.009999 0,0.02l0,28.540001c0,1.639999 1.33,2.969997 2.97,2.98l25.96,0c0.41,0 0.75,-0.34 0.75,-0.760002c0,-0.41 -0.34,-0.739998 -0.75,-0.739998l-25.96,0c-0.81,0 -1.47,-0.670002 -1.47,-1.48l0,-27.800001l2.95,0l0,25.58c0,0.41 0.34,0.75 0.75,0.75l30.679998,0c0,0 0,0 0,0c0,0 0,0 0,0c0.190002,0 0.390003,-0.079998 0.530003,-0.220001l6.399998,-6.399998c0.02,-0.02 0.030003,-0.040001 0.050003,-0.060001c0.039997,-0.049999 0.079998,-0.099998 0.109997,-0.16c0.010002,-0.029999 0.02,-0.059998 0.030003,-0.09c0.02,-0.059998 0.029999,-0.119999 0.039997,-0.18c0,-0.02 0.010002,-0.029999 0.010002,-0.049999l0,-19.190001l2.959999,0l0,27.800001c0,0.810001 -0.669998,1.470001 -1.48,1.48l-11.599998,0c-0.420002,0 -0.75,0.330002 -0.75,0.740002c0,0.419998 0.329998,0.759998 0.75,0.759998l11.59,0c1.639999,-0.009998 2.969997,-1.34 2.98,-2.98l0,-33.900001c-0.010002,-1.639999 -1.34,-2.97 -2.98,-2.97zm-7.920002,-3.18c0,-0.74 0.610001,-1.35 1.350002,-1.35c0.459999,0 0.779999,0.22 0.959999,0.4c0.259998,0.26 0.399998,0.59 0.399998,0.95l0,3.17l-2.709999,0l0,-3.17zm-28.419999,0c0,-0.74 0.61,-1.35 1.349999,-1.35c0.46,0 0.78,0.22 0.96,0.4c0.26,0.26 0.400001,0.59 0.400001,0.95l0,3.17l-2.71,0l0,-3.17zm-2.24,12.259999l35.599998,0l0,18.41l-5.66,0c-0.41,0 -0.75,0.34 -0.75,0.75l0,5.66l-29.189998,0l0,-24.82zm30.689998,23.760002l0,-3.850002l3.850002,0l-3.850002,3.850002zm-35.129998,-25.270001l0,-4.61c0,-0.370001 0.13,-0.72 0.38,-0.990001c0.28,-0.309999 0.67,-0.49 1.09,-0.49l41.550002,0c0.809998,0.01 1.48,0.67 1.48,1.48l0,4.61l-44.500001,0z" class="st4"/>
  <path fill="#2c2a3d" id="svg_24" d="m32.310001,45.919998c-0.420002,0 -0.750002,0.330002 -0.750002,0.740002c0,0.420002 0.33,0.759998 0.750002,0.759998c0.41,0 0.739998,-0.339996 0.739998,-0.759998c0,-0.41 -0.329998,-0.740002 -0.739998,-0.740002z" class="st4"/>
  <path fill="#2c2a3d" id="svg_25" d="m23.17,18.370001l-4.440001,0c-0.41,0 -0.75,0.339998 -0.75,0.75l0,4.439999c0,0.41 0.34,0.75 0.75,0.75l4.440001,0c0.41,0 0.75,-0.34 0.75,-0.75l0,-4.439999c0,-0.410002 -0.34,-0.75 -0.75,-0.75zm-0.75,4.439999l-2.940001,0l0,-2.939999l2.940001,0l0,2.939999z" class="st4"/>
  <path fill="#2c2a3d" id="svg_26" d="m31.27,18.370001l-4.43,0c-0.41,0 -0.75,0.339998 -0.75,0.75l0,4.439999c0,0.41 0.34,0.75 0.75,0.75l4.43,0c0.41,0 0.75,-0.34 0.75,-0.75l0,-4.439999c0,-0.410002 -0.34,-0.75 -0.75,-0.75zm-0.75,4.439999l-2.93,0l0,-2.939999l2.93,0l0,2.939999z" class="st4"/>
  <path fill="#2c2a3d" id="svg_27" d="m35.419998,24.309999l4.440002,0c0.41,0 0.75,-0.34 0.75,-0.75l0,-4.439999c0,-0.410002 -0.34,-0.75 -0.75,-0.75l-4.440002,0c-0.41,0 -0.75,0.339998 -0.75,0.75l0,4.439999c0,0.41 0.34,0.75 0.75,0.75zm0.75,-4.439999l2.940002,0l0,2.939999l-2.940002,0l0,-2.939999z" class="st4"/>
  <path fill="#2c2a3d" id="svg_28" d="m14.82,26.08l-4.44,0c-0.41,0 -0.75,0.34 -0.75,0.75l0,4.440001c0,0.41 0.34,0.75 0.75,0.75l4.44,0c0.41,0 0.75,-0.34 0.75,-0.75l0,-4.440001c0,-0.41 -0.34,-0.75 -0.75,-0.75zm-0.75,4.43l-2.94,0l0,-2.940001l2.94,0l0,2.940001z" class="st4"/>
  <path fill="#2c2a3d" id="svg_29" d="m23.17,26.08l-4.440001,0c-0.41,0 -0.75,0.34 -0.75,0.75l0,4.440001c0,0.41 0.34,0.75 0.75,0.75l4.440001,0c0.41,0 0.75,-0.34 0.75,-0.75l0,-4.440001c0,-0.41 -0.34,-0.75 -0.75,-0.75zm-0.75,4.43l-2.940001,0l0,-2.940001l2.940001,0l0,2.940001z" class="st4"/>
  <path fill="#2c2a3d" id="svg_30" d="m31.27,26.08l-4.43,0c-0.41,0 -0.75,0.34 -0.75,0.75l0,4.440001c0,0.41 0.34,0.75 0.75,0.75l4.43,0c0.41,0 0.75,-0.34 0.75,-0.75l0,-4.440001c0,-0.41 -0.34,-0.75 -0.75,-0.75zm-0.75,4.43l-2.93,0l0,-2.940001l2.93,0l0,2.940001z" class="st4"/>
  <path fill="#2c2a3d" id="svg_31" d="m39.860001,32.009998c0.41,0 0.75,-0.339998 0.75,-0.749998l0,-4.440001c0,-0.41 -0.34,-0.75 -0.75,-0.75l-4.440002,0c-0.41,0 -0.75,0.34 -0.75,0.75l0,4.440001c0,0.41 0.34,0.749998 0.75,0.749998l4.440002,0zm-3.690002,-4.429998l2.940002,0l0,2.940001l-2.940002,0l0,-2.940001z" class="st4"/>
  <path fill="#2c2a3d" id="svg_32" d="m14.82,33.790001l-4.44,0c-0.41,0 -0.75,0.34 -0.75,0.75l0,4.43c0,0.41 0.34,0.75 0.75,0.75l4.44,0c0.41,0 0.75,-0.34 0.75,-0.75l0,-4.43c0,-0.420002 -0.34,-0.75 -0.75,-0.75zm-0.75,4.43l-2.94,0l0,-2.93l2.94,0l0,2.93z" class="st4"/>
  <path fill="#2c2a3d" id="svg_33" d="m23.17,33.790001l-4.440001,0c-0.41,0 -0.75,0.34 -0.75,0.75l0,4.43c0,0.41 0.34,0.75 0.75,0.75l4.440001,0c0.41,0 0.75,-0.34 0.75,-0.75l0,-4.43c0,-0.420002 -0.34,-0.75 -0.75,-0.75zm-0.75,4.43l-2.940001,0l0,-2.93l2.940001,0l0,2.93z" class="st4"/>
  <path fill="#2c2a3d" id="svg_34" d="m31.27,33.790001l-4.43,0c-0.41,0 -0.75,0.34 -0.75,0.75l0,4.43c0,0.41 0.34,0.75 0.75,0.75l4.43,0c0.41,0 0.75,-0.34 0.75,-0.75l0,-4.43c0,-0.420002 -0.34,-0.75 -0.75,-0.75zm-0.75,4.43l-2.93,0l0,-2.93l2.93,0l0,2.93z" class="st4"/>
 </g>
</svg>